<svg width="20" height="18" viewBox="0 0 20 18" fill="none" xmlns="http://www.w3.org/2000/svg">
<path d="M17.6889 1.13625C17.4667 0.4725 16.8444 0 16.1111 0H3.88889C3.15556 0 2.54444 0.4725 2.31111 1.13625L0 7.875V16.875C0 17.4937 0.5 18 1.11111 18H2.22222C2.83333 18 3.33333 17.4937 3.33333 16.875V15.75H16.6667V16.875C16.6667 17.4937 17.1667 18 17.7778 18H18.8889C19.5 18 20 17.4937 20 16.875V7.875L17.6889 1.13625ZM3.88889 12.375C2.96667 12.375 2.22222 11.6213 2.22222 10.6875C2.22222 9.75375 2.96667 9 3.88889 9C4.81111 9 5.55556 9.75375 5.55556 10.6875C5.55556 11.6213 4.81111 12.375 3.88889 12.375ZM16.1111 12.375C15.1889 12.375 14.4444 11.6213 14.4444 10.6875C14.4444 9.75375 15.1889 9 16.1111 9C17.0333 9 17.7778 9.75375 17.7778 10.6875C17.7778 11.6213 17.0333 12.375 16.1111 12.375ZM2.22222 6.75L3.88889 1.6875H16.1111L17.7778 6.75H2.22222Z" fill="#ACB6C3"/>
</svg>
