<svg width="25" height="24" viewBox="0 0 25 24" fill="none" xmlns="http://www.w3.org/2000/svg">
<g id="Frame">
<path id="Vector" d="M7.5 11C5.01472 11 3 8.98528 3 6.5C3 4.01472 5.01472 2 7.5 2C9.98528 2 12 4.01472 12 6.5C12 8.98528 9.98528 11 7.5 11ZM18 15C15.7909 15 14 13.2091 14 11C14 8.79086 15.7909 7 18 7C20.2091 7 22 8.79086 22 11C22 13.2091 20.2091 15 18 15ZM18 16C20.4853 16 22.5 18.0147 22.5 20.5V21H13.5V20.5C13.5 18.0147 15.5147 16 18 16ZM7.5 12C10.2614 12 12.5 14.2386 12.5 17V21H2.5V17C2.5 14.2386 4.73858 12 7.5 12Z" fill="#0D69F2"/>
</g>
</svg>
