<svg width="25" height="20" viewBox="0 0 25 20" fill="none" xmlns="http://www.w3.org/2000/svg">
<g id="furniture_couch_sofa_icon_194660 1" clip-path="url(#clip0_42_1006)">
<path id="Vector" d="M6.5 8.8125V11.1875H18.5V8.8125C18.5 7.50254 19.5763 6.4375 20.9 6.4375H22.1C22.1 4.4707 20.4875 2.875 18.5 2.875H6.5C4.5125 2.875 2.9 4.4707 2.9 6.4375H4.1C5.42375 6.4375 6.5 7.50254 6.5 8.8125ZM22.1 7.625H20.9C20.2362 7.625 19.7 8.15566 19.7 8.8125V12.375H5.3V8.8125C5.3 8.15566 4.76375 7.625 4.1 7.625H2.9C1.57625 7.625 0.5 8.69004 0.5 10C0.5 10.8758 0.9875 11.6328 1.7 12.0447V16.5312C1.7 16.8578 1.97 17.125 2.3 17.125H4.7C5.03 17.125 5.3 16.8578 5.3 16.5312V15.9375H19.7V16.5312C19.7 16.8578 19.97 17.125 20.3 17.125H22.7C23.03 17.125 23.3 16.8578 23.3 16.5312V12.0447C24.0125 11.6328 24.5 10.8758 24.5 10C24.5 8.69004 23.4238 7.625 22.1 7.625Z" fill="#C102AE"/>
</g>
<defs>
<clipPath id="clip0_42_1006">
<rect width="24" height="19" fill="white" transform="translate(0.5 0.5)"/>
</clipPath>
</defs>
</svg>
